<svg xmlns="http://www.w3.org/2000/svg" version="1.1" xmlns:xlink="http://www.w3.org/1999/xlink" xmlns:svgjs="http://svgjs.dev/svgjs" width="1500" height="1500" viewBox="0 0 1500 1500"><rect width="1500" height="1500" fill="#000000"></rect><g transform="matrix(0.6666666666666666,0,0,0.6666666666666666,249.39436519522388,476.13038899661615)"><svg viewBox="0 0 396 216" data-background-color="#2e3d4e" preserveAspectRatio="xMidYMid meet" height="818" width="1500" xmlns="http://www.w3.org/2000/svg" xmlns:xlink="http://www.w3.org/1999/xlink"><g id="tight-bounds" transform="matrix(1,0,0,1,0.24008861730862918,0.47647183997113984)"><svg viewBox="0 0 395.52 215.04705632005772" height="215.04705632005772" width="395.52"><g><svg viewBox="0 0 395.52 215.04705632005772" height="215.04705632005772" width="395.52"><g transform="matrix(1,0,0,1,0,106.37957131442074)"><svg viewBox="0 0 395.52 108.66748500563696" height="108.66748500563696" width="395.52"><g id="textblocktransform"><svg viewBox="0 0 395.52 108.66748500563696" height="108.66748500563696" width="395.52" id="textblock"><g><svg viewBox="0 0 395.52 108.66748500563696" height="108.66748500563696" width="395.52"><path d="M394.594 23.307C392.735 12.027 387.435 8.892 387.435 8.892 371.165-2.726 350.86-0.222 332.619 1.447 300.414 1.515 268.339 3.996 236.208 5.327 168.767 5.53 100.749 2.192 33.643 10.426 27.339 12.952-6.54 10.922 1.121 24.751 3.129 30.504 10.456 36.888 10.232 42.167 11.236 43.092 12.631 40.971 13.226 42.302 15.309 45.889 18.711 44.197 21.501 46.318 17.614 51.98 20.403 56.695 23.062 61.635 18.377 62.921 12.371 62.312 9.675 66.576 9.396 69.666 7.89 69.08 6.235 68.945 5.026 68.854 2.59 69.193 2.999 70.163 4.394 73.479-1.594 75.397 2.162 78.645-0.422 82.164 3.948 85.21 3.353 89.022 3.278 89.789 3.687 90.444 4.338 90.624 7.22 91.594 3.018 93.489 3.464 95.542 33.029 109.574 65.104 99.873 95.394 106.325 103.259 101.813 97.346 107.927 100.489 106.98 102.943 105.874 104.728 110.454 107.499 107.859 107.927 107.115 107.276 105.355 108.8 105.694 109.6 105.874 110.307 105.829 110.418 104.791 110.586 103.235 109.117 104.205 108.726 103.393 112.947 99.287 111.906 109.055 115.866 108.649 115.68 107.453 114.528 105.739 116.889 105.964 119.232 104.25 119.306 102.829 121.389 106.686 121.463 107.521 121.835 108.107 122.43 108.514 128.938 104.318 135.409 110.002 142.233 108.107 146.417 106.032 150.433 109.235 154.672 108.446 156.16 107.814 157.666 106.686 159.098 108.581 176.632 108.987 195.319 107.295 211.943 108.649 256.364 106.122 303.836 109.687 350.674 106.348 361.719 105.062 373.192 103.235 383.958 101.768 383.958 101.768 392.679 97.753 392.679 79.705S394.538 63.914 394.817 49.544C395.096 35.173 396.398 34.587 394.538 23.307Z" opacity="1" fill="#ffffff" data-fill-palette-color="tertiary"></path><g transform="matrix(1,0,0,1,55.76832,26.230666666666668)"><svg width="283.98335999999995" viewBox="1.33 -39.25 199.54999999999998 39.5" height="56.20615167230363" data-palette-color="#2e3d4e"><path d="M14.25 0.25L14.25 0.25Q20.48 0.25 23.14-3.09 25.8-6.43 26.05-9.9L26.05-9.9 21.53-11.45Q21.43-8.18 19.54-5.74 17.65-3.3 14.25-3.3L14.25-3.3Q10.8-3.3 8.64-6 6.48-8.7 6.48-14.8L6.48-14.8Q6.48-21.3 8.61-23.83 10.75-26.35 14.25-26.35L14.25-26.35Q17.68-26.35 19.55-24.09 21.43-21.83 21.53-18.1L21.53-18.1 26.05-19.6Q25.8-23.5 23.15-26.7 20.5-29.9 14.25-29.9L14.25-29.9Q7.43-29.9 4.38-26.16 1.33-22.43 1.33-14.8L1.33-14.8Q1.33-7.53 4.38-3.64 7.43 0.25 14.25 0.25ZM48.92-15.83L48.92-15.83 53.97-15.83Q53.97-23.15 52.01-26.51 50.05-29.88 45-29.88L45-29.88Q40.1-29.88 37.2-27.2 34.3-24.53 34.3-20.73L34.3-20.73 36.25-19.3Q36.25-22.03 38.1-24.19 39.95-26.35 43.17-26.35L43.17-26.35Q46-26.35 47.46-24.14 48.92-21.93 48.92-15.83ZM31.22-29.63L31.22 0 36.27 0 36.27-23.9 35.2-29.63 31.22-29.63ZM70.8 0.25L70.8 0.25 70.8-3.1Q67-3.1 64.87-5.88L64.87-5.88Q62.72-8.6 62.72-14.88L62.72-14.88Q62.72-21.5 64.95-24.05L64.95-24.05Q67.15-26.58 70.72-26.58L70.72-26.58Q74.4-26.58 76.45-24.18L76.45-24.18Q78.22-21.93 78.42-16.48L78.42-16.48 62.17-16.48 62.17-13.33 83.42-13.33Q83.52-14.08 83.52-14.95L83.52-14.95Q83.52-22.38 80.57-26.15L80.57-26.15Q77.59-29.93 70.72-29.93L70.72-29.93Q64.05-29.93 60.95-26.15L60.95-26.15Q57.82-22.4 57.82-14.88L57.82-14.88Q57.82-7.78 60.87-3.75L60.87-3.75Q63.9 0.25 70.8 0.25ZM70.8-3.1L70.8-3.1 70.8 0.25Q74.55 0.25 77-0.73L77-0.73Q79.45-1.7 81-3.85L81-3.85Q82.52-5.98 82.95-9.03L82.95-9.03 78.4-10.25Q77.97-8.05 77.12-6.3L77.12-6.3Q76.22-4.55 74.59-3.83L74.59-3.83Q72.97-3.1 70.8-3.1ZM107.72-4.88L108.04 0 112.74 0 112.74-39.25 107.72-39.25 107.72-4.88ZM98.34 0.2L98.34 0.2Q103.19 0.2 106.54-2.24 109.89-4.67 109.89-7.3L109.89-7.3 107.72-10.03Q107.72-7.43 105.46-5.38 103.19-3.33 100.04-3.33L100.04-3.33Q96.69-3.33 94.74-5.76 92.79-8.2 92.79-14.85L92.79-14.85Q92.79-21.5 94.74-23.94 96.69-26.38 100.04-26.38L100.04-26.38Q103.19-26.38 105.46-24.34 107.72-22.3 107.72-19.73L107.72-19.73 109.89-22.38Q109.89-25.03 106.54-27.46 103.19-29.9 98.34-29.9L98.34-29.9Q93.02-29.9 90.36-26.18 87.69-22.45 87.69-14.88L87.69-14.88Q87.69-7.3 90.36-3.55 93.02 0.2 98.34 0.2ZM118.02-39.25L118.02 0 122.64 0 123.09-4.75 123.09-39.25 118.02-39.25ZM132.52 0.2L132.52 0.2Q137.84 0.2 140.47-3.59 143.09-7.38 143.09-14.88L143.09-14.88Q143.09-22.4 140.47-26.15 137.84-29.9 132.52-29.9L132.52-29.9Q127.67-29.9 124.27-27.46 120.87-25.03 120.87-22.38L120.87-22.38 123.07-19.73Q123.07-22.3 125.37-24.34 127.67-26.38 130.81-26.38L130.81-26.38Q134.17-26.38 136.08-23.9 137.99-21.43 137.99-14.85L137.99-14.85Q137.99-8.25 136.08-5.79 134.17-3.33 130.81-3.33L130.81-3.33Q127.67-3.33 125.37-5.36 123.07-7.4 123.07-10.03L123.07-10.03 120.87-7.3Q120.87-4.67 124.27-2.24 127.67 0.2 132.52 0.2ZM147.99-29.63L147.99 0 153.04 0 153.04-23.9 151.96-29.63 147.99-29.63ZM166.56-16.93L166.56 0 171.61 0 171.61-16.95Q171.61-23 169.48-26.46 167.34-29.93 162.19-29.93L162.19-29.93Q157.01-29.93 153.72-26.7 150.44-23.48 150.44-19.83L150.44-19.83 152.89-18.28Q152.89-21.78 155.06-24.08 157.24-26.38 160.36-26.38L160.36-26.38Q163.49-26.38 165.03-24.23 166.56-22.08 166.56-16.93L166.56-16.93ZM190.46-19.18L186.99-15.65 195.41 0 200.88 0 190.46-19.18ZM177.09-39.25L177.09 0 182.13 0 182.13-10.75 187.26-15.6 190.38-18.65 200.53-29.65 194.59-29.65 182.13-16.43 182.13-39.25 177.09-39.25Z" opacity="1" transform="matrix(1,0,0,1,0,0)" fill="#000000" class="wordmark-text-0" data-fill-palette-color="quaternary" id="text-0"></path></svg></g></svg></g></svg></g></svg></g><g transform="matrix(1,0,0,1,156.74450860271133,0)"><svg viewBox="0 0 82.03098279457731 93.11064785222999" height="93.11064785222999" width="82.03098279457731"><g><svg xmlns="http://www.w3.org/2000/svg" xmlns:xlink="http://www.w3.org/1999/xlink" version="1.1" x="0" y="0" viewBox="-337.167 256.13227976134704 87.98399999999998 99.86772023865296" enable-background="new -346 256 100 100" xml:space="preserve" height="93.11064785222999" width="82.03098279457731" class="icon-icon-0" data-fill-palette-color="accent" id="icon-0"><path d="M-263.363 311.56L-270.33 286.039-289.892 273.793-270.744 270.184-270.331 264.971S-284.64 258.779-295.722 256.263C-298.155 255.71-300.375 264.288-302.453 264.116-304.652 263.932-305.474 255.701-306.907 256.15-315.862 258.957-321.682 271.79-321.682 271.79L-308.25 277.003-327.95 293.043V335.15L-337.167 356H-249.183zM-296.575 337.709C-308.215 337.709-317.651 328.273-317.651 316.633-317.651 304.994-308.215 295.558-296.575 295.558S-275.499 304.994-275.499 316.633C-275.499 328.273-284.936 337.709-296.575 337.709" fill="#ffffff" data-fill-palette-color="accent"></path><path d="M-297.026 313.592C-298.312 312.99-299.169 312.282-299.169 311.149-299.169 309.485-298.234 308.565-297.026 308.069zM-295.195 319.575C-293.872 320.177-292.937 320.991-292.937 322.302S-293.91 324.496-295.195 324.992zM-297.026 301.271V303.891C-301.193 304.351-304.854 306.512-304.854 311.362-304.854 316.283-300.531 317.557-297.026 318.797V325.418C-297.299 325.488-297.532 325.488-297.766 325.488-299.908 325.488-302.05 324.886-303.919 323.967L-304.426 328.428C-301.738 329.029-300.415 329.384-297.455 329.384-297.338 329.384-297.182 329.384-297.026 329.348V332.145H-295.195V329.243C-290.717 328.747-287.251 326.553-287.251 321.913-287.251 316.815-291.77 315.541-295.195 314.302V307.752C-295.078 307.717-295.001 307.717-294.884 307.717-292.976 307.717-291.068 308.107-289.354 308.779L-288.847 304.708C-290.795 304.105-292.898 303.822-295.195 303.822V301.274H-297.026z" fill="#ffffff" data-fill-palette-color="accent"></path></svg></g></svg></g><g></g></svg></g><defs></defs></svg><rect width="395.52" height="215.04705632005772" fill="none" stroke="none" visibility="hidden"></rect></g></svg></g></svg>